<svg width="24" height="24" viewBox="0 0 24 24" fill="none" xmlns="http://www.w3.org/2000/svg">
<path fill-rule="evenodd" clip-rule="evenodd" d="M14.3745 3.25012C14.2087 3.25012 14.0497 3.18426 13.9325 3.06704C13.8153 2.94982 13.7494 2.79083 13.7494 2.62506C13.7494 2.45928 13.8153 2.3003 13.9325 2.18308C14.0497 2.06585 14.2087 2 14.3745 2H19.3749C19.5407 2 19.6997 2.06585 19.8169 2.18308C19.9341 2.3003 20 2.45928 20 2.62506V7.62552C20 7.7913 19.9341 7.95029 19.8169 8.06751C19.6997 8.18473 19.5407 8.25058 19.3749 8.25058C19.2092 8.25058 19.0502 8.18473 18.933 8.06751C18.8157 7.95029 18.7499 7.7913 18.7499 7.62552V4.13395L14.437 8.44685C14.8086 9.16204 15.0018 9.95646 15.0002 10.7624C14.9986 11.5684 14.8022 12.362 14.4277 13.0757C14.0533 13.7894 13.5118 14.402 12.8496 14.8614C12.1873 15.3207 11.4238 15.6131 10.6241 15.7138V18.2515H12.4993C12.6651 18.2515 12.8241 18.3174 12.9413 18.4346C13.0585 18.5518 13.1244 18.7108 13.1244 18.8766C13.1244 19.0423 13.0585 19.2013 12.9413 19.3186C12.8241 19.4358 12.6651 19.5016 12.4993 19.5016H10.6241V21.3768C10.6241 21.5426 10.5583 21.7016 10.4411 21.8188C10.3238 21.936 10.1648 22.0019 9.99907 22.0019C9.83329 22.0019 9.67431 21.936 9.55709 21.8188C9.43987 21.7016 9.37401 21.5426 9.37401 21.3768V19.5016H7.49884C7.33306 19.5016 7.17407 19.4358 7.05685 19.3186C6.93963 19.2013 6.87378 19.0423 6.87378 18.8766C6.87378 18.7108 6.93963 18.5518 7.05685 18.4346C7.17407 18.3174 7.33306 18.2515 7.49884 18.2515H9.37401V15.7138C8.57374 15.6127 7.80979 15.3196 7.14734 14.8593C6.4849 14.3991 5.94363 13.7854 5.56971 13.0707C5.1958 12.356 5.00033 11.5614 5 10.7548C4.99967 9.94814 5.19448 9.1534 5.56781 8.43836C5.94114 7.72333 6.4819 7.10922 7.14397 6.64843C7.80603 6.18765 8.56974 5.89387 9.36993 5.79216C10.1701 5.69044 10.983 5.78382 11.7393 6.06432C12.4956 6.34481 13.1728 6.8041 13.7132 7.403L17.8661 3.25012H14.3745ZM13.1281 8.68312C12.5796 7.85325 11.7238 7.27528 10.7491 7.07635C9.77442 6.87743 8.76062 7.07385 7.93075 7.6224C7.10088 8.17095 6.52291 9.0267 6.32398 10.0014C6.12506 10.9761 6.32148 11.9899 6.87003 12.8198C7.41875 13.6496 8.27466 14.2275 9.24947 14.4263C10.2243 14.6252 11.2381 14.4286 12.068 13.8799C12.8979 13.3311 13.4758 12.4752 13.6746 11.5004C13.8734 10.5256 13.6768 9.51174 13.1281 8.68187V8.68312Z" fill="black"/>
</svg>
