<svg width="20" height="20" viewBox="0 0 20 20" fill="none" xmlns="http://www.w3.org/2000/svg">
<path d="M5.95825 17.5833C5.74992 17.375 5.64575 17.1283 5.64575 16.8433C5.64575 16.5589 5.74992 16.3125 5.95825 16.1041L12.0624 9.99998L5.93742 3.87498C5.74297 3.68054 5.64575 3.43748 5.64575 3.14581C5.64575 2.85415 5.74992 2.60415 5.95825 2.39581C6.16659 2.18748 6.41325 2.08331 6.69825 2.08331C6.9827 2.08331 7.22909 2.18748 7.43742 2.39581L14.4374 9.41665C14.5208 9.49998 14.5799 9.59026 14.6149 9.68748C14.6494 9.7847 14.6666 9.88887 14.6666 9.99998C14.6666 10.1111 14.6494 10.2153 14.6149 10.3125C14.5799 10.4097 14.5208 10.5 14.4374 10.5833L7.41658 17.6041C7.22214 17.7986 6.9827 17.8958 6.69825 17.8958C6.41325 17.8958 6.16659 17.7916 5.95825 17.5833Z" fill="#B5B5B8"/>
</svg>
