<svg width="24" height="24" viewBox="0 0 24 24" fill="none" xmlns="http://www.w3.org/2000/svg">
<path d="M16.125 13.5C15.8266 13.5 15.5405 13.3815 15.3295 13.1705C15.1185 12.9595 15 12.6734 15 12.375C15 12.0766 15.1185 11.7905 15.3295 11.5795C15.5405 11.3685 15.8266 11.25 16.125 11.25C16.4234 11.25 16.7095 11.3685 16.9205 11.5795C17.1315 11.7905 17.25 12.0766 17.25 12.375C17.25 12.6734 17.1315 12.9595 16.9205 13.1705C16.7095 13.3815 16.4234 13.5 16.125 13.5ZM15 16.125C15 16.4234 15.1185 16.7095 15.3295 16.9205C15.5405 17.1315 15.8266 17.25 16.125 17.25C16.4234 17.25 16.7095 17.1315 16.9205 16.9205C17.1315 16.7095 17.25 16.4234 17.25 16.125C17.25 15.8266 17.1315 15.5405 16.9205 15.3295C16.7095 15.1185 16.4234 15 16.125 15C15.8266 15 15.5405 15.1185 15.3295 15.3295C15.1185 15.5405 15 15.8266 15 16.125ZM12 17.25C11.7016 17.25 11.4155 17.1315 11.2045 16.9205C10.9935 16.7095 10.875 16.4234 10.875 16.125C10.875 15.8266 10.9935 15.5405 11.2045 15.3295C11.4155 15.1185 11.7016 15 12 15C12.2984 15 12.5845 15.1185 12.7955 15.3295C13.0065 15.5405 13.125 15.8266 13.125 16.125C13.125 16.4234 13.0065 16.7095 12.7955 16.9205C12.5845 17.1315 12.2984 17.25 12 17.25ZM10.875 12.375C10.875 12.6734 10.9935 12.9595 11.2045 13.1705C11.4155 13.3815 11.7016 13.5 12 13.5C12.2984 13.5 12.5845 13.3815 12.7955 13.1705C13.0065 12.9595 13.125 12.6734 13.125 12.375C13.125 12.0766 13.0065 11.7905 12.7955 11.5795C12.5845 11.3685 12.2984 11.25 12 11.25C11.7016 11.25 11.4155 11.3685 11.2045 11.5795C10.9935 11.7905 10.875 12.0766 10.875 12.375ZM7.875 13.5C7.57663 13.5 7.29048 13.3815 7.0795 13.1705C6.86853 12.9595 6.75 12.6734 6.75 12.375C6.75 12.0766 6.86853 11.7905 7.0795 11.5795C7.29048 11.3685 7.57663 11.25 7.875 11.25C8.17337 11.25 8.45952 11.3685 8.6705 11.5795C8.88147 11.7905 9 12.0766 9 12.375C9 12.6734 8.88147 12.9595 8.6705 13.1705C8.45952 13.3815 8.17337 13.5 7.875 13.5ZM21 6.75C21 5.75544 20.6049 4.80161 19.9016 4.09835C19.1984 3.39509 18.2446 3 17.25 3H6.75C5.75544 3 4.80161 3.39509 4.09835 4.09835C3.39509 4.80161 3 5.75544 3 6.75V17.25C3 18.2446 3.39509 19.1984 4.09835 19.9016C4.80161 20.6049 5.75544 21 6.75 21H17.25C18.2446 21 19.1984 20.6049 19.9016 19.9016C20.6049 19.1984 21 18.2446 21 17.25V6.75ZM17.25 4.5C17.8467 4.5 18.419 4.73705 18.841 5.15901C19.2629 5.58097 19.5 6.15326 19.5 6.75V7.5H4.5V6.75C4.5 6.15326 4.73705 5.58097 5.15901 5.15901C5.58097 4.73705 6.15326 4.5 6.75 4.5H17.25ZM19.5 17.25C19.5 17.8467 19.2629 18.419 18.841 18.841C18.419 19.2629 17.8467 19.5 17.25 19.5H6.75C6.15326 19.5 5.58097 19.2629 5.15901 18.841C4.73705 18.419 4.5 17.8467 4.5 17.25V9H19.5V17.25Z" fill="black"/>
</svg>
