<svg width="200" height="200" viewBox="0 0 200 200" fill="none" xmlns="http://www.w3.org/2000/svg">
<circle cx="100" cy="100" r="100" fill="#FAFAFA"/>
<path d="M65 152.5V140.833C65 134.645 67.4583 128.71 71.8342 124.334C76.21 119.958 82.1449 117.5 88.3333 117.5H111.667C117.855 117.5 123.79 119.958 128.166 124.334C132.542 128.71 135 134.645 135 140.833V152.5M76.6667 70.8333C76.6667 77.0217 79.125 82.9566 83.5008 87.3325C87.8767 91.7083 93.8116 94.1667 100 94.1667C106.188 94.1667 112.123 91.7083 116.499 87.3325C120.875 82.9566 123.333 77.0217 123.333 70.8333C123.333 64.6449 120.875 58.71 116.499 54.3342C112.123 49.9583 106.188 47.5 100 47.5C93.8116 47.5 87.8767 49.9583 83.5008 54.3342C79.125 58.71 76.6667 64.6449 76.6667 70.8333Z" stroke="#B5B5B8" stroke-width="6" stroke-linecap="round" stroke-linejoin="round"/>
</svg>
