<svg width="34" height="34" viewBox="0 0 34 34" fill="none" xmlns="http://www.w3.org/2000/svg">
<rect x="7" y="10" width="19" height="16" fill="white"/>
<path d="M16.9999 2.83337C9.16575 2.83337 2.83325 9.16587 2.83325 17C2.83325 24.8342 9.16575 31.1667 16.9999 31.1667C24.8341 31.1667 31.1666 24.8342 31.1666 17C31.1666 9.16587 24.8341 2.83337 16.9999 2.83337ZM21.3916 10.0159C21.5899 10.0159 21.7883 10.0867 21.9583 10.2425L23.7574 12.0417C24.0833 12.3534 24.0833 12.8492 23.7574 13.1467L22.3408 14.5634L19.4366 11.6592L20.8533 10.2425C20.9949 10.0867 21.1933 10.0159 21.3916 10.0159ZM18.6008 12.4809L21.5191 15.3992L12.9341 23.9842H10.0158V21.0659L18.6008 12.4809Z" fill="#B5B5B8"/>
</svg>
