<svg width="34" height="34" viewBox="0 0 34 34" fill="none" xmlns="http://www.w3.org/2000/svg">
<rect x="7" y="10" width="19" height="16" fill="white"/>
<path d="M16.9999 2.83331C9.16575 2.83331 2.83325 9.16581 2.83325 17C2.83325 24.8341 9.16575 31.1666 16.9999 31.1666C24.8341 31.1666 31.1666 24.8341 31.1666 17C31.1666 9.16581 24.8341 2.83331 16.9999 2.83331ZM21.3916 10.0158C21.5899 10.0158 21.7883 10.0866 21.9583 10.2425L23.7574 12.0416C24.0833 12.3533 24.0833 12.8491 23.7574 13.1466L22.3408 14.5633L19.4366 11.6591L20.8533 10.2425C20.9949 10.0866 21.1933 10.0158 21.3916 10.0158ZM18.6008 12.4808L21.5191 15.3991L12.9341 23.9841H10.0158V21.0658L18.6008 12.4808Z" fill="#FF575C"/>
</svg>
